<svg width="1150" height="1268" viewBox="0 0 1150 1268" fill="none" xmlns="http://www.w3.org/2000/svg">
<path d="M574.736 155.896C848.552 151.197 973.223 119.001 1127.43 13.1654C1153.42 -4.67541 1155.88 -4.44022 1138.45 14.2154C1082.53 74.0776 965.07 138.929 882.837 155.346C755.528 180.763 607.543 190.9 508.374 180.996L492.925 179.453L494.462 194.828C495.308 203.283 497.347 214.927 498.991 220.702C505.264 242.721 504.674 316.399 498.141 327.463C497.565 328.433 493.37 325.598 488.817 321.163C478.766 311.371 479.518 313.87 495.556 343.546C505.659 362.24 508.208 369.27 512.295 389.744C518.203 419.328 516.767 417.807 535.138 413.942C557.09 409.324 558.56 408.245 557.439 397.571C556.924 392.689 555.996 374.992 555.375 358.246L554.243 327.797L573.032 347.746C596.111 372.252 617.415 430.329 606.457 438.874C606.042 439.195 594.839 444.775 581.56 451.27C535.304 473.896 511.995 501.342 508.638 537.137L507.517 549.086L499.518 542.656C488.477 533.782 486.615 520.227 493.331 497.6C499.062 478.287 499.931 479.029 477.383 483.974C435.076 493.253 425.857 499.446 412.309 527.681C403.974 545.052 402.391 547.16 399.494 544.756C396.672 542.414 395.549 542.931 391.801 548.3C368.988 580.983 324.991 599.939 255.089 607.201C154.296 617.669 134.294 651.54 147.888 788.728C151.428 824.453 152.217 862.128 149.358 858.97C147.504 856.922 16.7959 533.742 16.7959 531.207C16.7959 530.432 22.2294 534.957 28.868 541.259C78.8675 588.728 103.736 592.577 183.955 565.27C240.32 546.083 238.847 546.845 252.661 529.815C298.206 473.672 351.285 452.29 454.54 448.5C514.439 446.301 523.591 444.317 536.727 430.668C541.516 425.695 547.42 420.561 549.849 419.261C560.258 413.688 552.853 413.742 535.371 419.366C524.978 422.709 515.663 425.443 514.67 425.443C513.677 425.443 509.66 413.45 505.747 398.791C500.064 377.51 497.194 370.421 491.502 363.617C482.6 352.975 479.673 346.087 476.721 328.832C475.439 321.334 473.912 313.039 473.329 310.401L472.271 305.603L480.883 309.998C485.62 312.415 490.181 314.101 491.019 313.744C491.857 313.389 487.1 284.276 480.446 249.05C466.64 175.955 464.416 154.542 467.998 129.185C473.484 90.3578 476.667 86.9141 514.181 79.2179L532.66 75.4275L543.784 81.0659L554.909 86.704L543.565 88.048C500.066 93.2011 495.063 98.0562 492.542 137.568L491.28 157.328L574.736 155.896Z" fill="#851B13"/>
<path d="M469.505 614.441C470.57 581.616 470.228 582.25 490.629 575.372L504.928 570.551L506.329 595.244C507.099 608.824 509.615 627.912 511.918 637.66C524.242 689.839 520.821 695.496 447.192 744.749C358.654 803.973 322.713 874.996 279.325 1076.47C255.515 1187.02 243.145 1222.65 219.744 1248.07C201.799 1267.56 209.414 1266.36 98.1514 1267.16L0 1267.86V1257.93V1247.99L44.6143 1249.2C69.1531 1249.86 108.939 1252.46 133.026 1254.97C169.816 1258.81 177.262 1259.09 179.561 1256.7C185.929 1250.09 232.731 1190.9 232.093 1190.26C231.709 1189.87 220.191 1191.91 206.5 1194.79C165.986 1203.31 137.414 1206.8 108.269 1206.78C79.4178 1206.77 73.3605 1205.95 37.7909 1197.29C25.6663 1194.33 12.7312 1191.91 9.04663 1191.91C-0.375896 1191.91 -1.59783 1188.2 7.27673 1186.53C15.3514 1185.02 20.2327 1185.55 44.5071 1190.56C59.8208 1193.72 130.345 1200.84 131.814 1199.37C132.192 1198.99 124.529 1186.59 114.781 1171.83L97.0596 1144.99L120.438 1127.19C133.295 1117.4 147.594 1105.81 152.213 1101.44C157.227 1096.7 166.322 1091.36 174.783 1088.2L188.954 1082.9V1105.69C188.954 1132.51 184.583 1143.27 160.739 1175.11C144.888 1196.28 144.594 1194.94 163.887 1189.53C232.059 1170.43 249.659 1127.02 220.422 1050.1L218.211 1044.28L194.369 1045.65C166.553 1047.24 147.64 1052.4 132.999 1062.42C108.663 1079.06 67.1649 1099.51 57.7277 1099.51C55.4203 1099.51 61.8846 1087.1 70.4253 1075.13C92.4595 1044.24 120.414 1032.02 178.18 1028.02C192.46 1027.03 204.394 1025.94 204.697 1025.6C205.001 1025.25 202.534 991.422 199.215 950.421C195.893 909.42 193.448 875.049 193.777 874.041C194.105 873.035 207.965 902.14 224.577 938.718C241.188 975.298 255.401 1005.61 256.163 1006.09C258.412 1007.47 270.486 966.741 276.001 939.171C284.181 898.286 285.531 877.596 285.531 793.133C285.531 698.549 285.819 697.823 299.155 758.701C308.991 803.606 309.688 805.783 312.749 801.107C322.739 785.844 342.033 764.528 353.918 755.627C367.275 745.621 375.537 741.064 411.585 723.805C451.039 704.916 467.58 673.68 469.505 614.441Z" fill="#851B13"/>
<path d="M0 1120.95L25.7188 1111.41C56.1677 1100.1 54.5868 1100.38 54.5868 1106.44C54.5868 1109.1 55.6868 1112.37 57.0305 1113.72C60.3099 1117 23.8587 1134.68 9.97266 1136.54L0 1137.88V1129.42V1120.95Z" fill="#851B13"/>
</svg>
