<svg width="478" height="171" viewBox="0 0 478 171" fill="none" xmlns="http://www.w3.org/2000/svg">
<path d="M217.48 40.6322H424.129V101.796H217.48V40.6322Z" fill="white"/>
<path fill-rule="evenodd" clip-rule="evenodd" d="M127.984 1.50969C127.34 2.2914 127.115 2.93143 127.486 2.93143C127.856 2.93143 127.462 3.63399 126.61 4.49193C125.758 5.35083 124.362 5.78273 123.508 5.45246C122.654 5.12218 121.408 5.30882 120.741 5.86677C120.074 6.42569 116.527 7.10285 112.862 7.37254C104.342 7.99987 101.044 8.68387 100.243 9.98933C99.8181 10.6821 100.446 10.8199 102.113 10.3988C103.493 10.0499 104.859 10.1496 105.148 10.6206C105.722 11.5567 94.2098 13.167 93.3233 12.2749C93.0236 11.9729 94.0517 11.6905 95.6075 11.6485C97.1643 11.6065 97.8656 11.3407 97.1672 11.0593C96.4688 10.7779 92.7588 11.2303 88.9226 12.0658C81.1087 13.767 67.6894 16.2147 61.1267 17.1371C58.7435 17.4723 56.0441 18.1504 55.1275 18.6449C51.3049 20.7057 48.5406 19.7236 46.9596 15.7437C45.332 11.6446 40.2097 9.31804 38.617 11.9553C35.9671 16.3417 31.4141 19.1305 29.5053 17.5339C28.3956 16.6065 28.1153 16.6916 28.1153 17.9579C28.1153 18.8295 27.4199 19.5429 26.5692 19.5429C25.7195 19.5429 24.7942 20.4272 24.5139 21.5079C24.2336 22.5886 22.9678 23.7348 21.701 24.0553C20.4352 24.3748 19.6399 25.0295 19.9347 25.5103C20.2296 25.99 19.7165 26.3829 18.796 26.3829C17.8755 26.3829 17.4546 26.7131 17.86 27.1157C18.2664 27.5193 16.4837 28.3557 13.8997 28.9762C9.9035 29.9357 9.63579 30.1322 12.1111 30.2953C14.987 30.4839 14.9928 30.4957 12.5961 31.2686C10.693 31.8822 11.3196 32.0864 15.5059 32.2144C21.5652 32.4001 20.7379 32.9913 10.6562 35.6804C-1.82807 39.0105 -1.70683 39.4854 11.1412 37.5702C13.5011 37.2184 13.6844 37.3073 12.1111 38.0421C11.0442 38.5405 9.16342 38.9792 7.93159 39.0173C6.69781 39.0544 5.96161 39.5244 6.2914 40.0629C6.62118 40.6003 6.42816 41.04 5.86365 41.04C5.29913 41.04 4.83647 41.4103 4.83647 41.8618C4.83647 42.3142 6.90926 42.3406 9.44374 41.9204C15.7261 40.8788 16.4759 40.8885 16.4759 42.0171C16.4759 42.5546 14.8396 43.0383 12.8386 43.092C5.92378 43.2767 3.6861 44.5792 8.71628 45.4919L13.0811 46.2834L5.80642 48.0471C-1.01622 49.7014 -1.15299 49.7845 3.59687 49.3838C6.38257 49.1483 8.89863 49.3418 9.18864 49.8128C9.73182 50.6991 8.53684 51.1876 3.13905 52.282C-1.19566 53.1605 -0.971606 55.1324 3.38154 54.421C5.2487 54.1151 6.77637 54.2774 6.77637 54.7816C6.77637 55.2848 6.12165 55.6971 5.32144 55.6971C3.26902 55.6971 3.49987 57.6348 5.56393 57.7286C6.91605 57.7902 6.96551 57.9192 5.80642 58.3638C3.44944 59.2676 2.8374 61.0187 4.62987 61.7349C6.00041 62.2831 5.9199 62.4121 4.16623 62.4687C1.72292 62.5479 0.0371449 64.4914 2.41159 64.4914C3.27485 64.4914 3.71132 64.9311 3.38154 65.4686C2.78599 66.4399 4.59689 66.732 10.1712 66.5659C12.6688 66.4916 12.8066 66.606 11.1412 67.3711C9.76577 68.0033 9.62512 68.3052 10.6562 68.4088C11.4564 68.4889 10.8017 69.0234 9.20125 69.597C3.16136 71.7614 1.99742 73.2769 6.31758 73.3541C9.35839 73.4088 9.76188 73.6003 8.2313 74.2629C6.44853 75.0348 6.48733 75.111 8.71628 75.2009C10.8395 75.2869 10.9307 75.4227 9.44374 76.2953C6.30886 78.1353 7.51257 79.4359 11.7222 78.7577C15.4836 78.1519 15.6078 78.2076 14.0287 79.7994C12.4487 81.3911 12.4564 81.5211 14.1742 82.2012C15.8512 82.8647 15.8348 82.9252 13.9579 82.9887C6.89665 83.2272 4.53384 87.3898 10.8492 88.4646L14.9114 89.1555L9.20125 92.2657L14.0859 92.9038C23.4072 94.1204 27.0251 96.7371 19.3857 96.7371C15.6689 96.7371 13.697 98.5888 17.2034 98.7872C18.1365 98.84 16.9366 99.4165 14.536 100.069L10.1712 101.254L13.4448 101.928C15.245 102.297 17.8639 102.607 19.2645 102.616C25.0813 102.651 30.2628 109.902 29.0387 116.294C27.8466 122.522 27.899 122.919 30.0058 123.593C31.1581 123.961 31.6838 124.755 31.352 125.625C30.4548 127.981 32.904 130.243 34.7352 128.75C35.7585 127.916 36.0253 127.889 35.5607 128.671C35.1824 129.305 35.3347 130.112 35.8982 130.463C36.4627 130.814 36.6587 131.944 36.3337 132.974C35.9981 134.039 36.2008 134.846 36.8032 134.846C37.3861 134.846 38.2775 135.945 38.7848 137.289C39.2921 138.632 40.2038 139.731 40.811 139.731C41.4822 139.731 41.7499 140.863 41.4939 142.618C41.1534 144.96 41.4522 145.559 43.0817 145.794C44.3475 145.976 45.0895 146.805 45.0895 148.037C45.0895 149.957 49.6909 155.366 51.3234 155.366C52.3952 155.366 53.4951 158.222 52.8365 159.295C51.9558 160.73 54.3302 161.446 55.8249 160.197C57.7852 158.557 58.1809 159.217 58.4098 164.5C58.632 169.644 58.8541 169.954 60.0937 166.847C60.89 164.852 60.9763 164.942 61.0326 167.824C61.0656 169.57 61.5302 171 62.0636 171C63.2819 171 63.2693 167.759 62.0326 162.694C60.017 154.438 59.7881 147.747 61.4632 146.06C62.3265 145.19 62.9987 143.96 62.957 143.326C62.9036 142.522 62.7319 142.545 62.3895 143.402C61.6359 145.284 60.1237 143.812 60.1237 141.197C60.1237 138.427 61.9473 136.983 63.0908 138.847C63.537 139.574 63.5098 140.412 63.0317 140.71C61.9055 141.411 66.6564 147.549 68.3257 147.549C70.3907 147.549 70.8213 142.804 68.8145 142.162C67.6884 141.802 67.281 140.967 67.6108 139.697C68.2529 137.224 69.5235 137.24 70.3082 139.731C71.06 142.118 72.0862 142.198 74.2288 140.039C75.4257 138.833 77.3646 138.432 81.4724 138.536C86.6005 138.667 87.0389 138.515 86.584 136.763C86.3086 135.704 86.5705 134.846 87.1689 134.846C87.7654 134.846 88.2523 135.285 88.2523 135.823C88.2523 137.406 92.8412 136.939 93.4688 135.292C93.9275 134.087 94.4494 134.003 96.0605 134.872C97.6735 135.742 97.8471 136.238 96.9257 137.357C95.7326 138.805 96.1235 139.043 99.4068 138.867C108.235 138.392 152.985 134.164 167.788 132.406C172.351 131.864 187.795 130.146 194.462 129.437C196.596 129.211 206.853 128.341 217.256 127.504C227.659 126.669 239.444 125.631 243.445 125.2C256.077 123.838 322.197 123.244 335.59 124.373C339.591 124.71 343.083 125.002 343.35 125.021C344.391 125.095 381.702 126.072 400.092 126.508C410.794 126.761 418.621 126.604 417.551 126.156C415.999 125.507 416.431 125.265 419.704 124.942C421.956 124.721 424.575 124.849 425.524 125.227C426.474 125.605 426.706 125.945 426.038 125.983C425.372 126.02 424.826 126.452 424.826 126.943C424.826 127.432 425.59 127.685 426.523 127.505C427.456 127.326 429.094 127.101 430.16 127.006C431.811 126.86 431.74 126.717 429.676 126.051L427.251 125.269L429.676 125.077C431.009 124.972 435.298 124.939 439.206 125.007C443.674 125.082 446.092 124.768 445.719 124.161C445.393 123.629 446.559 122.749 448.312 122.203L451.499 121.214L447.459 121.452C445.236 121.583 443.58 121.427 443.777 121.105C443.975 120.784 435.971 120.51 425.994 120.498C406.691 120.475 378.096 118.619 374.873 117.18C373.657 116.637 375.646 116.527 380.208 116.887C407.734 119.057 453.13 118.358 451.019 115.797C450.167 114.762 450.415 114.383 452.171 114.045C453.401 113.809 452.227 113.492 449.56 113.343C444.166 113.04 458.365 111.378 468.231 111.158C471.031 111.094 473.323 110.741 473.323 110.369C473.323 109.999 471.031 109.604 468.231 109.492C465.431 109.38 462.497 109.249 461.712 109.202C454.53 108.762 457.852 106.037 465.398 106.178L473.808 106.336L466.534 105.434C455.62 104.079 447.686 102.521 447.135 101.623C446.864 101.182 445.335 100.628 443.737 100.392C442.138 100.155 444.104 99.865 448.105 99.7467C453.316 99.5924 454.829 99.2836 453.439 98.6572C452.093 98.0514 452.984 97.9126 456.349 98.2038C472.799 99.6295 474.293 99.6725 474.293 98.7188C474.293 98.1667 472.875 97.7094 471.141 97.7035C469.407 97.6977 466.261 97.4055 464.151 97.0547C458.677 96.144 462.579 94.7399 468.605 95.4512C471.078 95.7434 473.892 95.5362 474.859 94.992C476.29 94.1839 475.94 94.0011 472.964 94.0011C470.957 94.0011 469.053 93.7373 468.733 93.4149C468.412 93.0924 470.188 92.8286 472.676 92.8286C476.556 92.8286 477.203 92.5491 477.203 90.8743C477.203 89.7994 477.221 88.5897 477.241 88.1871C477.262 87.7846 475.843 87.1826 474.089 86.8504L470.898 86.2456L473.808 86.1019C475.898 85.9993 476.337 85.715 475.365 85.0955C474.281 84.4036 474.377 84.1506 475.85 83.8232C477.769 83.3972 474.477 82.7366 464.109 81.4673L458.289 80.755L462.654 79.9107C465.055 79.4466 469.419 79.0704 472.353 79.0753C478.014 79.0851 476.716 77.4014 470.956 77.2627C468.236 77.1972 468.19 77.1278 469.986 75.7598C472.177 74.0899 476.233 73.7899 476.233 75.2977C476.233 75.8663 476.67 76.0608 477.203 75.7286C480.071 73.9424 469.565 70.5067 463.139 71.1292C461.118 71.3246 460.633 71.136 461.551 70.5126C462.667 69.7533 462.667 69.5188 461.551 69.0029C460.824 68.6677 464.152 68.6462 468.947 68.955C479.161 69.6136 479.293 68.7948 469.284 66.8815L462.169 65.5213L469.201 66.0822C478.576 66.8307 478.142 65.365 468.231 62.8029C463.655 61.6196 461.409 60.7021 462.986 60.6581C466.121 60.5721 471.788 56.7603 469.09 56.5521C468.218 56.4847 467.177 56.3489 466.776 56.2492C466.376 56.1505 463.43 55.4763 460.229 54.7513C452.645 53.0344 451.727 52.0837 457.23 51.643C459.68 51.4466 461.684 51.5687 461.684 51.9146C461.684 52.2605 462.97 52.7344 464.542 52.967C466.115 53.1986 467.181 53.0295 466.91 52.5889C466.64 52.1491 466.991 51.7426 467.689 51.686C468.387 51.6293 467.213 51.0039 465.079 50.2955C462.945 49.5871 462.036 48.9734 463.058 48.9324C466.365 48.7985 464.147 47.9455 456.283 46.3263C452.052 45.4557 447.867 44.0994 446.984 43.3128C446.102 42.5262 442.173 41.4426 438.255 40.9052C428.21 39.5264 425.767 37.0024 435.064 37.6083C438.769 37.8496 440.927 37.8184 439.86 37.5389C438.793 37.2594 437.047 36.6253 435.98 36.1299C434.241 35.3227 427.866 34.2176 416.581 32.7675C414.447 32.4929 412.216 31.6037 411.625 30.7917C411.032 29.9787 409.857 29.3143 409.015 29.3143C408.171 29.3143 407.211 28.8746 406.882 28.3371C406.552 27.7997 405.072 27.36 403.592 27.36C399.382 27.36 399.241 26.1806 403.229 24.3211L406.882 22.616L404.233 21.5997C402.536 20.948 401.776 20.0803 402.116 19.1852C402.525 18.1133 401.106 17.5358 396.036 16.7072C385.7 15.0197 382.339 14.6366 372.206 13.9946C366.325 13.6223 362.743 12.9882 362.734 12.3169C362.725 11.6436 362.429 11.6974 361.95 12.4586C361.345 13.4171 360.775 13.3712 359.297 12.2456C357.602 10.9538 358.422 10.8072 367.518 10.7798C373.075 10.7623 377.428 10.5541 377.192 10.3167C376.688 9.80856 352.011 7.97349 341.132 7.63539C332.089 7.35495 329.663 6.29182 335.911 5.3479C342.765 4.31213 341.344 3.19135 332.972 3.02817C327.588 2.92263 325.017 2.43797 323.758 1.28983C322.14 -0.185657 322.011 -0.178817 322.011 1.37386C322.011 3.10927 321.801 3.11025 305.037 1.48721C303.436 1.33185 301.69 1.53509 301.157 1.93767C300.623 2.34026 293.858 2.94218 286.123 3.27441C278.387 3.60761 270.312 4.38151 268.178 4.99515C266.045 5.6088 259.061 6.16479 252.659 6.23124C246.258 6.29769 240.768 6.69538 240.458 7.11555C240.15 7.53573 235.349 8.02821 229.789 8.20898C224.23 8.39073 219.244 8.67019 218.711 8.83142C214.802 10.0089 199.924 7.44192 199.394 5.49936C198.921 3.76395 198.673 3.66135 197.898 4.8779C197.157 6.03874 196.722 6.0876 195.764 5.12218C194.029 3.37407 185.597 3.53726 184.913 5.33227C184.53 6.33677 183.288 6.64066 180.687 6.36511C178.661 6.15111 175.039 5.94298 172.638 5.9039C169.512 5.85309 168.684 5.57167 169.719 4.9121C170.761 4.24862 170.357 4.09716 168.264 4.37174C166.669 4.57987 165.087 4.78116 164.75 4.81829C164.411 4.85542 163.883 5.85602 163.575 7.04129C163.267 8.22754 162.711 8.89102 162.339 8.5158C161.967 8.14058 161.076 8.32428 160.361 8.92229C159.645 9.52128 159.059 9.6229 159.059 9.14899C159.059 8.67507 159.932 7.73799 160.999 7.0667C162.066 6.3954 162.937 5.51988 162.935 5.12218C162.929 4.15481 152.244 4.29943 150.074 5.29611C148.127 6.19118 145.48 4.44502 145.48 2.26599C145.48 1.49307 145.084 1.10808 144.601 1.40904C144.118 1.71 143.969 2.90895 144.272 4.07469C144.713 5.77589 144.494 6.0661 143.16 5.55017C142.247 5.19742 141.732 5.2883 142.017 5.75146C142.301 6.21561 141.443 6.59571 140.109 6.59571C138.452 6.59571 137.955 6.24785 138.54 5.49643C139.574 4.16654 139.624 0.977143 138.609 0.977143C138.209 0.977143 137.734 1.42077 137.555 1.96406C137.181 3.09559 132.87 4.14993 132.87 3.11025C132.87 1.31621 129.148 0.096737 127.984 1.50969ZM320.071 0.488571C320.071 0.757286 320.289 0.977143 320.556 0.977143C320.823 0.977143 321.041 0.757286 321.041 0.488571C321.041 0.219857 320.823 0 320.556 0C320.289 0 320.071 0.219857 320.071 0.488571ZM329.589 0.667389C330.288 0.949783 331.125 0.914606 331.447 0.590194C331.77 0.265783 331.197 0.0351771 330.175 0.0771943C329.045 0.124097 328.815 0.35568 329.589 0.667389ZM334.62 0.488571C334.62 0.757286 334.838 0.977143 335.105 0.977143C335.372 0.977143 335.59 0.757286 335.59 0.488571C335.59 0.219857 335.372 0 335.105 0C334.838 0 334.62 0.219857 334.62 0.488571ZM124.141 2.44286C124.141 2.71157 124.359 2.93143 124.626 2.93143C124.892 2.93143 125.111 2.71157 125.111 2.44286C125.111 2.17414 124.892 1.95429 124.626 1.95429C124.359 1.95429 124.141 2.17414 124.141 2.44286ZM175.548 2.44286C175.548 2.71157 175.766 2.93143 176.033 2.93143C176.3 2.93143 176.518 2.71157 176.518 2.44286C176.518 2.17414 176.3 1.95429 176.033 1.95429C175.766 1.95429 175.548 2.17414 175.548 2.44286ZM119.614 3.58318C119.97 3.94082 120.552 3.94082 120.908 3.58318C121.263 3.22457 120.972 2.93143 120.261 2.93143C119.55 2.93143 119.259 3.22457 119.614 3.58318ZM110.884 4.56033C111.24 4.91796 111.822 4.91796 112.178 4.56033C112.533 4.20171 112.242 3.90857 111.531 3.90857C110.82 3.90857 110.529 4.20171 110.884 4.56033ZM106.034 5.53747C106.39 5.8951 106.972 5.8951 107.328 5.53747C107.683 5.17886 107.392 4.88571 106.681 4.88571C105.97 4.88571 105.679 5.17886 106.034 5.53747ZM108.621 5.37429C108.621 5.643 108.84 5.86286 109.106 5.86286C109.373 5.86286 109.591 5.643 109.591 5.37429C109.591 5.10557 109.373 4.88571 109.106 4.88571C108.84 4.88571 108.621 5.10557 108.621 5.37429ZM136.427 6.51461C136.071 6.87225 135.78 6.5791 135.78 5.86286C135.78 5.14661 136.071 4.85347 136.427 5.2111C136.782 5.56972 136.782 6.156 136.427 6.51461ZM102.155 6.51461C102.511 6.87225 103.093 6.87225 103.449 6.51461C103.804 6.156 103.513 5.86286 102.802 5.86286C102.091 5.86286 101.8 6.156 102.155 6.51461ZM97.9519 7.32857C97.9519 7.59729 98.1701 7.81714 98.4368 7.81714C98.7036 7.81714 98.9218 7.59729 98.9218 7.32857C98.9218 7.05986 98.7036 6.84 98.4368 6.84C98.1701 6.84 97.9519 7.05986 97.9519 7.32857ZM193.25 7.48687C192.583 7.75851 191.492 7.75851 190.825 7.48687C190.158 7.2162 190.704 6.99439 192.037 6.99439C193.371 6.99439 193.917 7.2162 193.25 7.48687ZM379.057 10.4388C379.756 10.7212 380.593 10.686 380.915 10.3616C381.237 10.0372 380.665 9.80661 379.642 9.84862C378.512 9.89553 378.283 10.1271 379.057 10.4388ZM382.148 10.26C382.148 10.5287 382.366 10.7486 382.633 10.7486C382.9 10.7486 383.118 10.5287 383.118 10.26C383.118 9.99129 382.9 9.77143 382.633 9.77143C382.366 9.77143 382.148 9.99129 382.148 10.26ZM404.942 19.5429C405.271 20.0803 405.978 20.52 406.511 20.52C407.045 20.52 407.211 20.0803 406.882 19.5429C406.552 19.0054 405.846 18.5657 405.312 18.5657C404.779 18.5657 404.612 19.0054 404.942 19.5429ZM417.147 24.7872C417.37 24.9846 419.297 25.4409 421.431 25.8005C424.211 26.2695 424.898 26.1728 423.856 25.4565C422.547 24.5585 416.174 23.9234 417.147 24.7872ZM428.706 26.8714C428.706 27.1401 428.924 27.36 429.191 27.36C429.457 27.36 429.676 27.1401 429.676 26.8714C429.676 26.6027 429.457 26.3829 429.191 26.3829C428.924 26.3829 428.706 26.6027 428.706 26.8714ZM433.313 27.0297C433.98 27.3014 435.071 27.3014 435.738 27.0297C436.405 26.7591 435.859 26.5372 434.525 26.5372C433.192 26.5372 432.646 26.7591 433.313 27.0297ZM414.156 29.8029C414.156 30.0716 414.375 30.2914 414.641 30.2914C414.908 30.2914 415.126 30.0716 415.126 29.8029C415.126 29.5341 414.908 29.3143 414.641 29.3143C414.375 29.3143 414.156 29.5341 414.156 29.8029ZM428.706 32.7343C428.706 33.003 428.924 33.2229 429.191 33.2229C429.457 33.2229 429.676 33.003 429.676 32.7343C429.676 32.4656 429.457 32.2457 429.191 32.2457C428.924 32.2457 428.706 32.4656 428.706 32.7343ZM17.4458 36.6429C17.4458 36.9116 17.2276 37.1314 16.9609 37.1314C16.6941 37.1314 16.4759 36.9116 16.4759 36.6429C16.4759 36.3741 16.6941 36.1543 16.9609 36.1543C17.2276 36.1543 17.4458 36.3741 17.4458 36.6429ZM446.488 38.7603C446.844 39.118 447.426 39.118 447.782 38.7603C448.137 38.4017 447.846 38.1086 447.135 38.1086C446.424 38.1086 446.133 38.4017 446.488 38.7603ZM455.622 40.7097C456.289 40.9814 457.38 40.9814 458.047 40.7097C458.714 40.4391 458.168 40.2172 456.834 40.2172C455.5 40.2172 454.955 40.4391 455.622 40.7097ZM252.174 47.88C255.624 51.3557 254.544 57.2791 249.456 62.7736C247.182 65.2311 246.837 65.3269 245.298 63.9237C243.577 62.3544 241.531 65.0943 242.837 67.2216C243.104 67.6574 241.713 69.0342 239.746 70.28C224.673 79.8277 231.913 97.084 247.61 89.0226C248.958 88.3301 250.665 88.038 251.731 88.0951C252.79 88.1518 253.217 88.5533 252.029 89.2493C236.528 98.3287 224.402 89.023 227.959 77.7758C229.03 74.3887 231.523 70.8254 235.775 67.5352L240.05 64.2266L239.748 57.7638C239.283 47.794 246.439 42.1021 252.174 47.88ZM381.983 49.76C393.647 52.0309 389.608 56.1857 375.737 56.1857H365.174L364.591 67.4737L375.066 67.204C392.67 66.7506 391.598 71.8083 373.821 73.0844L364.204 73.7743L363.893 77.59C363.23 85.7589 363.514 85.9886 374.288 85.9886C384.608 85.9886 387.655 87.2325 385.058 90.3857C383.55 92.2149 365.156 92.469 361.331 90.7131C357.376 88.8985 356.72 84.6274 357.602 66.4457L358.384 50.3229L363.634 50.0825C366.522 49.9496 369.104 49.6203 369.374 49.3496C370.112 48.605 377.246 48.8376 381.983 49.76ZM245.648 51.0235C243.975 53.1282 243.362 56.2785 244.188 58.5269L244.971 60.663L247.193 58.2817C248.668 56.6997 249.306 54.9897 249.096 53.1869C248.74 50.1372 247.148 49.1376 245.648 51.0235ZM280.148 52.5214C281.581 53.9998 284.618 57.4071 286.897 60.0943L291.039 64.98L293.524 62.0486C303.342 50.4675 306.509 48.3549 308.726 51.9029C309.513 53.1624 308.304 55.1822 302.768 61.86C294.456 71.8845 294.487 69.4211 302.545 79.6215C309.092 87.9106 309.884 90.1033 306.765 91.3091C304.497 92.1856 301.198 89.5639 296.68 83.2965C294.454 80.2088 292.265 77.2715 291.816 76.7673C291.334 76.2289 287.819 78.9698 283.263 83.4363C269.792 96.6424 265.265 92.1201 278.393 78.5711C285.505 71.2308 286.217 70.1677 285.042 68.6423C284.318 67.7033 280.939 63.7468 277.531 59.85C272.354 53.9305 271.535 52.5253 272.543 51.3C274.376 49.075 277.254 49.5372 280.148 52.5214ZM348.927 52.0319C350.202 53.0559 350.754 85.1922 349.551 88.3513C347.102 94.7809 342.115 87.8491 343.006 79.2551C343.333 76.1106 343.287 69.7436 342.903 65.106L342.205 56.6743L326.376 56.685L326.327 69.1377C326.258 86.9452 324.432 90.544 315.887 89.7105C312.165 89.347 311.226 84.8434 314.736 84.1867C315.803 83.9874 317.157 83.4314 317.746 82.9516C319.147 81.8083 320.189 63.3765 319.193 57.3329C318.092 50.6482 341.911 46.4016 348.927 52.0319ZM421.768 50.6991C425.979 53.3872 422.505 55.2027 412.206 55.6971L402.032 56.1857L401.449 64.2159L407.634 64.7162C432.814 66.7525 428.432 90.8489 402.878 90.8684C394.867 90.8753 388.986 60.8467 395.081 51.0557C395.969 49.6301 419.6 49.3144 421.768 50.6991ZM472.676 58.3032C473.032 58.6608 473.614 58.6608 473.97 58.3032C474.325 57.9446 474.034 57.6514 473.323 57.6514C472.612 57.6514 472.321 57.9446 472.676 58.3032ZM260.904 61.0714C260.904 61.3401 260.686 61.56 260.419 61.56C260.152 61.56 259.934 61.3401 259.934 61.0714C259.934 60.8027 260.152 60.5829 260.419 60.5829C260.686 60.5829 260.904 60.8027 260.904 61.0714ZM261.841 65.4686C264.341 65.4686 264.967 67.93 262.937 69.7807C260.979 71.5669 258.852 68.4938 259.076 64.2012C259.163 62.5479 259.292 62.4453 259.632 63.7586C259.877 64.6996 260.871 65.4686 261.841 65.4686ZM8.45342 64.1045C8.1314 64.4289 7.29433 64.4641 6.59499 64.1817C5.82097 63.87 6.05085 63.6384 7.18084 63.5915C8.20317 63.5495 8.77544 63.7801 8.45342 64.1045ZM459.513 65.1627C458.586 65.407 456.84 65.4158 455.633 65.1823C454.427 64.9487 455.185 64.7484 457.319 64.7377C459.453 64.7269 460.44 64.9184 459.513 65.1627ZM261.396 68.3893C261.056 68.9423 261.445 69.1065 262.308 68.7733C263.988 68.1235 264.296 67.4229 262.901 67.4229C262.399 67.4229 261.721 67.8577 261.396 68.3893ZM402.759 70.9904C401.967 71.3197 401.547 73.6688 401.547 77.764V84.0343H406.665C418.826 84.0343 420.306 72.5148 408.337 71.0285C405.936 70.7305 403.427 70.7129 402.759 70.9904ZM259.934 74.7514C259.934 75.0201 259.716 75.24 259.449 75.24C259.182 75.24 258.964 75.0201 258.964 74.7514C258.964 74.4827 259.182 74.2629 259.449 74.2629C259.716 74.2629 259.934 74.4827 259.934 74.7514ZM251.465 79.8717C250.98 83.0806 249.264 83.3864 249.264 80.2635C249.264 78.7929 251.209 75.8331 251.752 76.478C251.858 76.6031 251.729 78.1304 251.465 79.8717ZM258.964 77.6829C258.964 77.9516 258.746 78.1714 258.479 78.1714C258.212 78.1714 257.994 77.9516 257.994 77.6829C257.994 77.4141 258.212 77.1943 258.479 77.1943C258.746 77.1943 258.964 77.4141 258.964 77.6829ZM257.509 80.1257C257.839 80.6631 257.89 81.1029 257.623 81.1029C257.357 81.1029 256.869 80.6631 256.539 80.1257C256.209 79.5883 256.158 79.1486 256.425 79.1486C256.691 79.1486 257.179 79.5883 257.509 80.1257ZM10.6562 81.5914C10.6562 81.8601 10.8744 82.08 11.1412 82.08C11.4079 82.08 11.6261 81.8601 11.6261 81.5914C11.6261 81.3227 11.4079 81.1029 11.1412 81.1029C10.8744 81.1029 10.6562 81.3227 10.6562 81.5914ZM259.383 89.2815C262.582 95.1757 262.126 95.804 257.574 91.7782C253.184 87.895 251.882 85.5225 252.707 82.9057C253.536 80.2742 255.528 82.1767 259.383 89.2815ZM475.586 99.3432C475.942 99.7008 476.524 99.7008 476.88 99.3432C477.235 98.9846 476.944 98.6914 476.233 98.6914C475.522 98.6914 475.231 98.9846 475.586 99.3432ZM455.541 108.137C455.185 108.495 454.603 108.495 454.247 108.137C453.892 107.779 454.183 107.486 454.894 107.486C455.605 107.486 455.896 107.779 455.541 108.137ZM392.817 110.906C392.817 111.174 392.599 111.394 392.332 111.394C392.066 111.394 391.847 111.174 391.847 110.906C391.847 110.637 392.066 110.417 392.332 110.417C392.599 110.417 392.817 110.637 392.817 110.906ZM476.052 111.085C476.751 111.367 477.588 111.332 477.91 111.007C478.232 110.683 477.66 110.452 476.638 110.494C475.508 110.541 475.278 110.773 476.052 111.085ZM455.432 114.412C455.732 114.902 456.68 115.303 457.538 115.303C459.376 115.303 458.394 114.038 456.316 113.732C455.53 113.615 455.131 113.921 455.432 114.412ZM379.238 114.814C379.238 115.083 379.02 115.303 378.753 115.303C378.486 115.303 378.268 115.083 378.268 114.814C378.268 114.546 378.486 114.326 378.753 114.326C379.02 114.326 379.238 114.546 379.238 114.814ZM447.135 114.814C447.135 115.083 446.916 115.303 446.65 115.303C446.383 115.303 446.165 115.083 446.165 114.814C446.165 114.546 446.383 114.326 446.65 114.326C446.916 114.326 447.135 114.546 447.135 114.814ZM328.316 120.548C329.916 120.716 326.642 120.917 321.041 120.995C315.439 121.072 311.358 120.813 311.971 120.418C312.998 119.756 321.378 119.823 328.316 120.548ZM296.792 120.677C296.792 120.946 296.574 121.166 296.307 121.166C296.04 121.166 295.822 120.946 295.822 120.677C295.822 120.408 296.04 120.189 296.307 120.189C296.574 120.189 296.792 120.408 296.792 120.677ZM300.409 120.779C300.087 121.103 299.25 121.138 298.551 120.856C297.777 120.544 298.006 120.313 299.136 120.266C300.159 120.224 300.731 120.454 300.409 120.779ZM303.259 120.84C302.903 121.198 302.321 121.198 301.965 120.84C301.61 120.482 301.901 120.189 302.612 120.189C303.323 120.189 303.614 120.482 303.259 120.84ZM308.169 120.779C307.847 121.103 307.01 121.138 306.31 120.856C305.536 120.544 305.766 120.313 306.896 120.266C307.918 120.224 308.491 120.454 308.169 120.779ZM334.357 120.779C334.035 121.103 333.198 121.138 332.499 120.856C331.725 120.544 331.955 120.313 333.085 120.266C334.107 120.224 334.679 120.454 334.357 120.779ZM337.53 120.677C337.53 120.946 337.312 121.166 337.045 121.166C336.778 121.166 336.56 120.946 336.56 120.677C336.56 120.408 336.778 120.189 337.045 120.189C337.312 120.189 337.53 120.408 337.53 120.677ZM380.208 122.746C380.208 122.951 378.79 123.113 377.056 123.105C374.912 123.095 374.326 122.82 375.223 122.247C376.427 121.479 380.208 121.857 380.208 122.746ZM452.307 121.817C452.663 122.175 453.245 122.175 453.601 121.817C453.956 121.459 453.665 121.166 452.954 121.166C452.243 121.166 451.952 121.459 452.307 121.817ZM361.779 122.631C361.779 122.9 361.561 123.12 361.294 123.12C361.027 123.12 360.809 122.9 360.809 122.631C360.809 122.363 361.027 122.143 361.294 122.143C361.561 122.143 361.779 122.363 361.779 122.631ZM370.246 122.733C369.924 123.057 369.086 123.093 368.387 122.81C367.613 122.499 367.843 122.267 368.973 122.22C369.995 122.178 370.568 122.409 370.246 122.733ZM222.106 123.609C222.106 123.877 221.888 124.097 221.621 124.097C221.354 124.097 221.136 123.877 221.136 123.609C221.136 123.34 221.354 123.12 221.621 123.12C221.888 123.12 222.106 123.34 222.106 123.609ZM225.016 123.609C225.016 123.877 224.797 124.097 224.531 124.097C224.264 124.097 224.046 123.877 224.046 123.609C224.046 123.34 224.264 123.12 224.531 123.12C224.797 123.12 225.016 123.34 225.016 123.609ZM206.587 125.556C206.587 126.261 205.483 126.527 203.677 126.26C202.076 126.023 200.767 125.513 200.767 125.126C200.767 124.739 202.076 124.423 203.677 124.423C205.277 124.423 206.587 124.933 206.587 125.556ZM212.667 124.738C212.01 125.006 210.701 125.022 209.757 124.774C208.814 124.526 209.351 124.307 210.951 124.288C212.552 124.268 213.324 124.47 212.667 124.738ZM218.468 124.744C217.802 125.016 216.711 125.016 216.044 124.744C215.377 124.473 215.922 124.252 217.256 124.252C218.59 124.252 219.136 124.473 218.468 124.744ZM408.337 124.586C408.337 124.854 408.118 125.074 407.852 125.074C407.585 125.074 407.367 124.854 407.367 124.586C407.367 124.317 407.585 124.097 407.852 124.097C408.118 124.097 408.337 124.317 408.337 124.586ZM414.156 124.471C414.156 125.339 410.232 125.792 409.735 124.982C409.436 124.496 410.309 124.097 411.674 124.097C413.039 124.097 414.156 124.266 414.156 124.471ZM34.582 126.703C34.226 127.061 33.935 126.768 33.935 126.051C33.935 125.335 34.226 125.042 34.582 125.4C34.937 125.758 34.937 126.345 34.582 126.703ZM194.947 125.458C194.947 125.669 194.292 126.095 193.492 126.405C192.692 126.714 192.037 126.541 192.037 126.021C192.037 125.5 192.692 125.074 193.492 125.074C194.292 125.074 194.947 125.247 194.947 125.458ZM198.504 125.726C198.148 126.084 197.566 126.084 197.21 125.726C196.855 125.367 197.146 125.074 197.857 125.074C198.568 125.074 198.859 125.367 198.504 125.726ZM190.987 126.401C189.961 127.291 183.308 127.781 183.308 126.967C183.308 126.464 185.126 126.051 187.349 126.051C189.572 126.051 191.209 126.209 190.987 126.401ZM421.269 126.703C421.625 127.061 422.207 127.061 422.563 126.703C422.918 126.345 422.627 126.051 421.916 126.051C421.205 126.051 420.914 126.345 421.269 126.703ZM433.816 126.729C434.76 126.977 436.069 126.96 436.726 126.692C437.383 126.425 436.611 126.222 435.01 126.242C433.41 126.262 432.872 126.48 433.816 126.729ZM439.194 126.719C439.893 127.001 440.73 126.966 441.052 126.642C441.374 126.317 440.802 126.087 439.779 126.129C438.649 126.176 438.42 126.407 439.194 126.719ZM442.285 126.54C442.285 126.809 442.503 127.029 442.77 127.029C443.037 127.029 443.255 126.809 443.255 126.54C443.255 126.271 443.037 126.051 442.77 126.051C442.503 126.051 442.285 126.271 442.285 126.54ZM143.217 131.589C142.861 131.947 142.279 131.947 141.923 131.589C141.568 131.23 141.859 130.937 142.57 130.937C143.281 130.937 143.572 131.23 143.217 131.589ZM64.0035 136.311C64.0035 136.58 63.7853 136.8 63.5186 136.8C63.2518 136.8 63.0336 136.58 63.0336 136.311C63.0336 136.043 63.2518 135.823 63.5186 135.823C63.7853 135.823 64.0035 136.043 64.0035 136.311ZM73.7031 138.266C73.7031 138.534 73.4848 138.754 73.2181 138.754C72.9514 138.754 72.7331 138.534 72.7331 138.266C72.7331 137.997 72.9514 137.777 73.2181 137.777C73.4848 137.777 73.7031 137.997 73.7031 138.266ZM90.651 138.711C90.9663 139.225 91.8654 139.398 92.6482 139.095C94.6531 138.32 94.4174 137.777 92.0749 137.777C90.977 137.777 90.3358 138.197 90.651 138.711ZM126.08 138.266C126.08 138.534 126.299 138.754 126.565 138.754C126.832 138.754 127.05 138.534 127.05 138.266C127.05 137.997 126.832 137.777 126.565 137.777C126.299 137.777 126.08 137.997 126.08 138.266ZM85.3425 140.22C85.3425 140.489 85.5607 140.709 85.8275 140.709C86.0942 140.709 86.3124 140.489 86.3124 140.22C86.3124 139.951 86.0942 139.731 85.8275 139.731C85.5607 139.731 85.3425 139.951 85.3425 140.22ZM111.531 140.22C111.531 140.489 111.749 140.709 112.016 140.709C112.283 140.709 112.501 140.489 112.501 140.22C112.501 139.951 112.283 139.731 112.016 139.731C111.749 139.731 111.531 139.951 111.531 140.22ZM67.8834 144.129C67.8834 144.397 67.6651 144.617 67.3984 144.617C67.1316 144.617 66.9134 144.397 66.9134 144.129C66.9134 143.86 67.1316 143.64 67.3984 143.64C67.6651 143.64 67.8834 143.86 67.8834 144.129ZM78.5528 159.763C78.5528 160.032 78.7711 160.251 79.0378 160.251C79.3046 160.251 79.5228 160.032 79.5228 159.763C79.5228 159.494 79.3046 159.274 79.0378 159.274C78.7711 159.274 78.5528 159.494 78.5528 159.763ZM63.0336 161.717C63.0336 161.986 63.2518 162.206 63.5186 162.206C63.7853 162.206 64.0035 161.986 64.0035 161.717C64.0035 161.448 63.7853 161.229 63.5186 161.229C63.2518 161.229 63.0336 161.448 63.0336 161.717Z" fill="black"/>
<path d="M173.594 55.0176C173.594 60.6196 169.619 62.824 167.321 58.4962C164.39 52.9803 153.603 60.2375 149.296 70.6206C144.892 81.2392 152.806 87.1979 163.615 81.4005C168.809 78.6156 170.471 78.3987 172.038 80.2992C176.625 85.8689 158.366 92.8497 149.52 88.9079C132.991 81.5422 143.389 52.7907 163.41 50.5013C173.388 49.36 173.594 49.4518 173.594 55.0176Z" fill="#CA4F45"/>
<path fill-rule="evenodd" clip-rule="evenodd" d="M208.204 50.7895C226.63 56.3504 218.7 88.2542 198.57 89.545C186.998 90.2876 178.097 84.3602 177.237 75.3412C175.576 57.9334 191.099 45.6263 208.204 50.7895ZM190.179 82.3571C180.556 77.7577 182.91 61.7101 193.915 56.881C203.472 52.6871 210.938 56.7833 210.938 66.2215C210.938 79.2136 200.528 87.3053 190.179 82.3571Z" fill="#CA4F45"/>
<path d="M69.7542 51.8634C70.5486 53.0848 71.8823 57.3725 72.7193 61.3905C76.444 79.2859 76.6341 79.3319 81.5886 63.5256C87.7381 43.9095 91.7556 43.544 94.9701 62.3091C95.8401 67.3873 97.6219 75.2611 98.9304 79.8058C101.419 88.4554 101.117 90.6833 97.4531 90.6833C94.7402 90.6833 93.7809 88.7417 91.2057 78.0254C89.8729 72.4792 88.6266 67.7859 88.4374 67.5944C88.2473 67.4039 86.1609 72.1909 83.8001 78.2326C79.67 88.8043 79.3926 89.2293 76.4207 89.5186L73.3314 89.8205L70.3585 80.4692C68.7231 75.3256 67.3846 70.4369 67.3846 69.6054C67.3846 65.6909 65.5272 70.0275 63.499 78.6791C60.982 89.4169 60.3156 90.6833 57.1856 90.6833C53.4221 90.6833 53.3601 84.8947 57.0119 74.5605C57.7714 72.4108 59.1759 66.9944 60.1332 62.524C62.6057 50.9801 66.4263 46.7471 69.7542 51.8634Z" fill="#CA4F45"/>
<path fill-rule="evenodd" clip-rule="evenodd" d="M136.506 58.4376C136.914 62.4683 137.132 71.2626 136.991 77.9805L136.736 90.1948H133.826C130.964 90.1948 130.912 90.1029 130.625 84.5762C130.441 81.0135 129.909 78.9615 129.171 78.9674C127.064 78.984 117.627 83.8208 112.944 87.2838C107.759 91.1181 105.713 91.4963 104.321 88.8776C103.228 86.8187 106.753 82.918 113.221 79.028C116.683 76.9457 117.28 75.049 114.473 75.049C113.76 75.049 111.822 73.7729 110.165 72.2143C100.893 63.4875 112.732 50.4231 129.462 50.9214L135.766 51.109L136.506 58.4376ZM122.504 57.8631C123.93 57.5474 125.533 57.1429 126.067 56.9631C128.843 56.0309 129.263 56.796 129.689 63.5676C130.232 72.1635 130.06 72.3941 123.749 71.5509C112.079 69.9913 111.203 60.3645 122.504 57.8631Z" fill="#CA4F45"/>
<path fill-rule="evenodd" clip-rule="evenodd" d="M227.915 76.6302C227.921 77.0212 227.936 77.403 227.959 77.7758C228.956 94.2041 245.547 93.1419 251.191 88.4038C251.353 88.2676 251.539 88.1679 251.731 88.0951C252.24 87.9017 252.786 87.8987 253.017 87.9081C253.178 86.455 251.391 85.9489 248.92 87.7363C243.044 91.9849 233.554 90.3267 232.23 84.8205C230.984 79.6367 233.827 75.1214 242.126 69.0992L244.702 67.2309L247.309 71.715C248.905 74.4588 249.71 76.9936 249.385 78.2482C248.703 80.8757 256.057 91.4299 260.3 93.9147C264.162 96.1749 264.093 95.2906 259.857 88.2043C257.956 85.0227 256.839 82.2721 257.375 82.0923C257.911 81.9125 259.095 79.4843 260.004 76.6965C260.913 73.9097 262.634 70.6314 263.828 69.4109C265.022 68.1915 266.463 65.347 267.032 63.0917C268.3 58.0575 267.793 57.0696 266.293 61.6514C265.034 65.4936 259.794 66.0496 260.862 62.227C262.2 57.436 262.191 56.2908 260.835 59.274C258.716 63.938 257.989 68.209 259.314 68.209C260.971 68.209 260.628 70.1281 257.927 75.9754L255.467 81.2988L253.091 76.1327C252.899 75.7162 251.659 75.9836 251.445 75.5458L249.185 76.3997L244.428 67.4294C244.428 67.4294 246.968 65.7443 247.772 65.2187C248.575 64.6931 245.007 67.0313 246.281 66.202C250.801 62.5521 256.106 50.4457 252.341 46.8819C245.968 40.852 237.191 49.9756 239.891 59.8232C240.805 63.1601 240.689 63.4113 236.809 66.4824C232.492 69.9007 229.523 73.2986 227.915 76.6302ZM245.833 59.4148C244.462 59.4148 244.669 53.718 246.098 52.0852C248.938 48.8421 250.878 53.1151 248.339 57.0198C247.482 58.337 246.354 59.4148 245.833 59.4148Z" fill="white"/>
<path d="M245.35 66.8186L244.702 67.1733C244.702 67.1733 249.183 75.9067 249.238 76.1327C249.293 76.3587 250.032 76.3997 251.445 75.5458C251.445 75.5458 249.385 67.9605 246.281 66.202C245.007 67.0313 245.71 66.6203 245.35 66.8186Z" fill="#CA4F45"/>
<path d="M252.029 89.2493C253.217 88.5533 252.79 88.1518 251.731 88.0951C251.539 88.1679 251.353 88.2676 251.191 88.4038C245.547 93.1419 228.956 94.2041 227.959 77.7758C224.402 89.023 236.528 98.3287 252.029 89.2493Z" fill="#CA4F45"/>
</svg>
