<svg width="678" height="360" viewBox="0 0 678 360" fill="none" xmlns="http://www.w3.org/2000/svg">
<g filter="url(#filter0_d_2_5)">
<path d="M317.48 129.632H524.129V190.796H317.48V129.632Z" fill="white"/>
<path fill-rule="evenodd" clip-rule="evenodd" d="M227.984 90.5097C227.34 91.2914 227.115 91.9314 227.486 91.9314C227.856 91.9314 227.462 92.634 226.61 93.4919C225.758 94.3508 224.362 94.7827 223.508 94.4525C222.654 94.1222 221.408 94.3088 220.741 94.8668C220.074 95.4257 216.527 96.1029 212.862 96.3725C204.342 96.9999 201.044 97.6839 200.243 98.9893C199.818 99.6821 200.446 99.8199 202.113 99.3988C203.493 99.0499 204.859 99.1496 205.148 99.6206C205.722 100.557 194.21 102.167 193.323 101.275C193.024 100.973 194.052 100.691 195.607 100.649C197.164 100.607 197.866 100.341 197.167 100.059C196.469 99.7779 192.759 100.23 188.923 101.066C181.109 102.767 167.689 105.215 161.127 106.137C158.743 106.472 156.044 107.15 155.128 107.645C151.305 109.706 148.541 108.724 146.96 104.744C145.332 100.645 140.21 98.318 138.617 100.955C135.967 105.342 131.414 108.131 129.505 106.534C128.396 105.607 128.115 105.692 128.115 106.958C128.115 107.83 127.42 108.543 126.569 108.543C125.72 108.543 124.794 109.427 124.514 110.508C124.234 111.589 122.968 112.735 121.701 113.055C120.435 113.375 119.64 114.03 119.935 114.51C120.23 114.99 119.717 115.383 118.796 115.383C117.876 115.383 117.455 115.713 117.86 116.116C118.266 116.519 116.484 117.356 113.9 117.976C109.903 118.936 109.636 119.132 112.111 119.295C114.987 119.484 114.993 119.496 112.596 120.269C110.693 120.882 111.32 121.086 115.506 121.214C121.565 121.4 120.738 121.991 110.656 124.68C98.1719 128.01 98.2932 128.485 111.141 126.57C113.501 126.218 113.684 126.307 112.111 127.042C111.044 127.54 109.163 127.979 107.932 128.017C106.698 128.054 105.962 128.524 106.291 129.063C106.621 129.6 106.428 130.04 105.864 130.04C105.299 130.04 104.836 130.41 104.836 130.862C104.836 131.314 106.909 131.341 109.444 130.92C115.726 129.879 116.476 129.889 116.476 131.017C116.476 131.555 114.84 132.038 112.839 132.092C105.924 132.277 103.686 133.579 108.716 134.492L113.081 135.283L105.806 137.047C98.9838 138.701 98.847 138.784 103.597 138.384C106.383 138.148 108.899 138.342 109.189 138.813C109.732 139.699 108.537 140.188 103.139 141.282C98.8043 142.16 99.0284 144.132 103.382 143.421C105.249 143.115 106.776 143.277 106.776 143.782C106.776 144.285 106.122 144.697 105.321 144.697C103.269 144.697 103.5 146.635 105.564 146.729C106.916 146.79 106.966 146.919 105.806 147.364C103.449 148.268 102.837 150.019 104.63 150.735C106 151.283 105.92 151.412 104.166 151.469C101.723 151.548 100.037 153.491 102.412 153.491C103.275 153.491 103.711 153.931 103.382 154.469C102.786 155.44 104.597 155.732 110.171 155.566C112.669 155.492 112.807 155.606 111.141 156.371C109.766 157.003 109.625 157.305 110.656 157.409C111.456 157.489 110.802 158.023 109.201 158.597C103.161 160.761 101.997 162.277 106.318 162.354C109.358 162.409 109.762 162.6 108.231 163.263C106.449 164.035 106.487 164.111 108.716 164.201C110.84 164.287 110.931 164.423 109.444 165.295C106.309 167.135 107.513 168.436 111.722 167.758C115.484 167.152 115.608 167.208 114.029 168.799C112.449 170.391 112.456 170.521 114.174 171.201C115.851 171.865 115.835 171.925 113.958 171.989C106.897 172.227 104.534 176.39 110.849 177.465L114.911 178.155L109.201 181.266L114.086 181.904C123.407 183.12 127.025 185.737 119.386 185.737C115.669 185.737 113.697 187.589 117.203 187.787C118.136 187.84 116.937 188.416 114.536 189.069L110.171 190.254L113.445 190.928C115.245 191.297 117.864 191.607 119.265 191.616C125.081 191.651 130.263 198.902 129.039 205.294C127.847 211.522 127.899 211.919 130.006 212.593C131.158 212.961 131.684 213.755 131.352 214.625C130.455 216.981 132.904 219.243 134.735 217.75C135.759 216.916 136.025 216.889 135.561 217.671C135.182 218.305 135.335 219.112 135.898 219.463C136.463 219.814 136.659 220.944 136.334 221.974C135.998 223.039 136.201 223.846 136.803 223.846C137.386 223.846 138.278 224.945 138.785 226.289C139.292 227.632 140.204 228.731 140.811 228.731C141.482 228.731 141.75 229.863 141.494 231.618C141.153 233.96 141.452 234.559 143.082 234.794C144.347 234.976 145.089 235.805 145.089 237.037C145.089 238.957 149.691 244.366 151.323 244.366C152.395 244.366 153.495 247.222 152.836 248.295C151.956 249.73 154.33 250.446 155.825 249.197C157.785 247.557 158.181 248.217 158.41 253.5C158.632 258.644 158.854 258.954 160.094 255.847C160.89 253.852 160.976 253.942 161.033 256.824C161.066 258.57 161.53 260 162.064 260C163.282 260 163.269 256.759 162.033 251.694C160.017 243.438 159.788 236.747 161.463 235.06C162.326 234.19 162.999 232.96 162.957 232.326C162.904 231.522 162.732 231.545 162.39 232.402C161.636 234.284 160.124 232.812 160.124 230.197C160.124 227.427 161.947 225.983 163.091 227.847C163.537 228.574 163.51 229.412 163.032 229.71C161.906 230.411 166.656 236.549 168.326 236.549C170.391 236.549 170.821 231.804 168.815 231.162C167.688 230.802 167.281 229.968 167.611 228.697C168.253 226.224 169.524 226.24 170.308 228.731C171.06 231.118 172.086 231.198 174.229 229.039C175.426 227.833 177.365 227.432 181.472 227.536C186.601 227.667 187.039 227.515 186.584 225.763C186.309 224.704 186.57 223.846 187.169 223.846C187.765 223.846 188.252 224.285 188.252 224.823C188.252 226.406 192.841 225.939 193.469 224.292C193.928 223.087 194.449 223.003 196.06 223.872C197.674 224.742 197.847 225.238 196.926 226.357C195.733 227.805 196.124 228.043 199.407 227.867C208.235 227.392 252.985 223.164 267.788 221.406C272.351 220.864 287.795 219.146 294.462 218.437C296.596 218.211 306.853 217.341 317.256 216.504C327.659 215.669 339.444 214.631 343.445 214.2C356.077 212.838 422.197 212.244 435.59 213.373C439.591 213.71 443.083 214.002 443.35 214.021C444.391 214.095 481.702 215.072 500.092 215.508C510.794 215.761 518.621 215.604 517.551 215.156C515.999 214.507 516.431 214.265 519.704 213.942C521.956 213.721 524.575 213.849 525.524 214.227C526.474 214.605 526.706 214.945 526.038 214.983C525.372 215.02 524.826 215.452 524.826 215.943C524.826 216.432 525.59 216.685 526.523 216.505C527.456 216.326 529.094 216.101 530.16 216.006C531.811 215.86 531.74 215.717 529.676 215.051L527.251 214.269L529.676 214.077C531.009 213.972 535.298 213.939 539.206 214.007C543.674 214.082 546.092 213.768 545.719 213.161C545.393 212.629 546.559 211.749 548.312 211.203L551.499 210.214L547.459 210.452C545.236 210.583 543.58 210.427 543.777 210.105C543.975 209.784 535.971 209.51 525.994 209.498C506.691 209.475 478.096 207.619 474.873 206.18C473.657 205.637 475.646 205.527 480.208 205.887C507.734 208.057 553.13 207.358 551.019 204.797C550.167 203.762 550.415 203.383 552.171 203.045C553.401 202.809 552.227 202.492 549.56 202.343C544.166 202.04 558.365 200.378 568.231 200.158C571.031 200.094 573.323 199.741 573.323 199.369C573.323 198.999 571.031 198.604 568.231 198.492C565.431 198.38 562.497 198.249 561.712 198.202C554.53 197.762 557.852 195.037 565.398 195.178L573.808 195.336L566.534 194.434C555.62 193.079 547.686 191.521 547.135 190.623C546.864 190.182 545.335 189.628 543.737 189.392C542.138 189.155 544.104 188.865 548.105 188.747C553.316 188.592 554.829 188.284 553.439 187.657C552.093 187.051 552.984 186.913 556.349 187.204C572.799 188.629 574.293 188.672 574.293 187.719C574.293 187.167 572.875 186.709 571.141 186.704C569.407 186.698 566.261 186.406 564.151 186.055C558.677 185.144 562.579 183.74 568.605 184.451C571.078 184.743 573.892 184.536 574.859 183.992C576.29 183.184 575.94 183.001 572.964 183.001C570.957 183.001 569.053 182.737 568.733 182.415C568.412 182.092 570.187 181.829 572.676 181.829C576.556 181.829 577.203 181.549 577.203 179.874C577.203 178.799 577.221 177.59 577.241 177.187C577.262 176.785 575.843 176.183 574.089 175.85L570.898 175.246L573.808 175.102C575.898 174.999 576.337 174.715 575.365 174.095C574.281 173.404 574.377 173.151 575.85 172.823C577.769 172.397 574.477 171.737 564.109 170.467L558.289 169.755L562.654 168.911C565.055 168.447 569.419 168.07 572.353 168.075C578.014 168.085 576.716 166.401 570.956 166.263C568.236 166.197 568.19 166.128 569.986 164.76C572.177 163.09 576.233 162.79 576.233 164.298C576.233 164.866 576.67 165.061 577.203 164.729C580.071 162.942 569.565 159.507 563.139 160.129C561.118 160.325 560.633 160.136 561.551 159.513C562.667 158.753 562.667 158.519 561.551 158.003C560.824 157.668 564.152 157.646 568.947 157.955C579.161 158.614 579.293 157.795 569.284 155.882L562.169 154.521L569.201 155.082C578.576 155.831 578.142 154.365 568.231 151.803C563.655 150.62 561.409 149.702 562.986 149.658C566.121 149.572 571.788 145.76 569.09 145.552C568.218 145.485 567.177 145.349 566.776 145.249C566.376 145.151 563.43 144.476 560.229 143.751C552.645 142.034 551.727 141.084 557.23 140.643C559.68 140.447 561.684 140.569 561.684 140.915C561.684 141.261 562.97 141.734 564.542 141.967C566.115 142.199 567.181 142.03 566.91 141.589C566.64 141.149 566.991 140.743 567.689 140.686C568.387 140.629 567.213 140.004 565.079 139.295C562.945 138.587 562.036 137.973 563.058 137.932C566.365 137.799 564.147 136.945 556.283 135.326C552.052 134.456 547.867 133.099 546.984 132.313C546.102 131.526 542.173 130.443 538.255 129.905C528.21 128.526 525.767 126.002 535.064 126.608C538.769 126.85 540.927 126.818 539.86 126.539C538.793 126.259 537.047 125.625 535.98 125.13C534.241 124.323 527.866 123.218 516.581 121.768C514.447 121.493 512.216 120.604 511.625 119.792C511.032 118.979 509.857 118.314 509.015 118.314C508.171 118.314 507.211 117.875 506.882 117.337C506.552 116.8 505.072 116.36 503.592 116.36C499.382 116.36 499.241 115.181 503.229 113.321L506.882 111.616L504.233 110.6C502.536 109.948 501.776 109.08 502.116 108.185C502.525 107.113 501.106 106.536 496.036 105.707C485.7 104.02 482.339 103.637 472.206 102.995C466.325 102.622 462.743 101.988 462.734 101.317C462.725 100.644 462.429 100.697 461.95 101.459C461.345 102.417 460.775 102.371 459.297 101.246C457.602 99.9538 458.422 99.8072 467.518 99.7798C473.075 99.7623 477.428 99.5541 477.192 99.3167C476.688 98.8086 452.011 96.9735 441.132 96.6354C432.089 96.355 429.663 95.2918 435.911 94.3479C442.765 93.3121 441.344 92.1913 432.972 92.0282C427.588 91.9226 425.017 91.438 423.758 90.2898C422.14 88.8143 422.011 88.8212 422.011 90.3739C422.011 92.1093 421.801 92.1102 405.037 90.4872C403.436 90.3318 401.69 90.5351 401.157 90.9377C400.623 91.3403 393.858 91.9422 386.123 92.2744C378.387 92.6076 370.312 93.3815 368.178 93.9952C366.045 94.6088 359.061 95.1648 352.659 95.2312C346.258 95.2977 340.768 95.6954 340.458 96.1156C340.15 96.5357 335.349 97.0282 329.789 97.209C324.23 97.3907 319.244 97.6702 318.711 97.8314C314.802 99.0089 299.924 96.4419 299.394 94.4994C298.921 92.764 298.673 92.6614 297.898 93.8779C297.157 95.0387 296.722 95.0876 295.764 94.1222C294.029 92.3741 285.597 92.5373 284.913 94.3323C284.53 95.3368 283.288 95.6407 280.687 95.3651C278.661 95.1511 275.039 94.943 272.638 94.9039C269.512 94.8531 268.684 94.5717 269.719 93.9121C270.761 93.2486 270.357 93.0972 268.264 93.3717C266.669 93.5799 265.087 93.7812 264.75 93.8183C264.411 93.8554 263.883 94.856 263.575 96.0413C263.267 97.2275 262.711 97.891 262.339 97.5158C261.967 97.1406 261.076 97.3243 260.361 97.9223C259.645 98.5213 259.059 98.6229 259.059 98.149C259.059 97.6751 259.932 96.738 260.999 96.0667C262.066 95.3954 262.937 94.5199 262.935 94.1222C262.929 93.1548 252.244 93.2994 250.074 94.2961C248.127 95.1912 245.48 93.445 245.48 91.266C245.48 90.4931 245.084 90.1081 244.601 90.409C244.118 90.71 243.969 91.909 244.272 93.0747C244.713 94.7759 244.494 95.0661 243.16 94.5502C242.247 94.1974 241.732 94.2883 242.017 94.7515C242.301 95.2156 241.443 95.5957 240.109 95.5957C238.452 95.5957 237.955 95.2479 238.54 94.4964C239.574 93.1665 239.624 89.9771 238.609 89.9771C238.209 89.9771 237.734 90.4208 237.555 90.9641C237.181 92.0956 232.87 93.1499 232.87 92.1102C232.87 90.3162 229.148 89.0967 227.984 90.5097ZM420.071 89.4886C420.071 89.7573 420.289 89.9771 420.556 89.9771C420.823 89.9771 421.041 89.7573 421.041 89.4886C421.041 89.2199 420.823 89 420.556 89C420.289 89 420.071 89.2199 420.071 89.4886ZM429.589 89.6674C430.288 89.9498 431.125 89.9146 431.447 89.5902C431.77 89.2658 431.197 89.0352 430.175 89.0772C429.045 89.1241 428.815 89.3557 429.589 89.6674ZM434.62 89.4886C434.62 89.7573 434.838 89.9771 435.105 89.9771C435.372 89.9771 435.59 89.7573 435.59 89.4886C435.59 89.2199 435.372 89 435.105 89C434.838 89 434.62 89.2199 434.62 89.4886ZM224.141 91.4429C224.141 91.7116 224.359 91.9314 224.626 91.9314C224.892 91.9314 225.111 91.7116 225.111 91.4429C225.111 91.1741 224.892 90.9543 224.626 90.9543C224.359 90.9543 224.141 91.1741 224.141 91.4429ZM275.548 91.4429C275.548 91.7116 275.766 91.9314 276.033 91.9314C276.3 91.9314 276.518 91.7116 276.518 91.4429C276.518 91.1741 276.3 90.9543 276.033 90.9543C275.766 90.9543 275.548 91.1741 275.548 91.4429ZM219.614 92.5832C219.97 92.9408 220.552 92.9408 220.908 92.5832C221.263 92.2246 220.972 91.9314 220.261 91.9314C219.55 91.9314 219.259 92.2246 219.614 92.5832ZM210.884 93.5603C211.24 93.918 211.822 93.918 212.178 93.5603C212.533 93.2017 212.242 92.9086 211.531 92.9086C210.82 92.9086 210.529 93.2017 210.884 93.5603ZM206.034 94.5375C206.39 94.8951 206.972 94.8951 207.328 94.5375C207.683 94.1789 207.392 93.8857 206.681 93.8857C205.97 93.8857 205.679 94.1789 206.034 94.5375ZM208.621 94.3743C208.621 94.643 208.84 94.8629 209.106 94.8629C209.373 94.8629 209.591 94.643 209.591 94.3743C209.591 94.1056 209.373 93.8857 209.106 93.8857C208.84 93.8857 208.621 94.1056 208.621 94.3743ZM236.427 95.5146C236.071 95.8722 235.78 95.5791 235.78 94.8629C235.78 94.1466 236.071 93.8535 236.427 94.2111C236.782 94.5697 236.782 95.156 236.427 95.5146ZM202.155 95.5146C202.511 95.8722 203.093 95.8722 203.449 95.5146C203.804 95.156 203.513 94.8629 202.802 94.8629C202.091 94.8629 201.8 95.156 202.155 95.5146ZM197.952 96.3286C197.952 96.5973 198.17 96.8171 198.437 96.8171C198.704 96.8171 198.922 96.5973 198.922 96.3286C198.922 96.0599 198.704 95.84 198.437 95.84C198.17 95.84 197.952 96.0599 197.952 96.3286ZM293.25 96.4869C292.583 96.7585 291.492 96.7585 290.825 96.4869C290.158 96.2162 290.704 95.9944 292.037 95.9944C293.371 95.9944 293.917 96.2162 293.25 96.4869ZM479.057 99.4388C479.756 99.7212 480.593 99.686 480.915 99.3616C481.237 99.0372 480.665 98.8066 479.642 98.8486C478.512 98.8955 478.283 99.1271 479.057 99.4388ZM482.148 99.26C482.148 99.5287 482.366 99.7486 482.633 99.7486C482.9 99.7486 483.118 99.5287 483.118 99.26C483.118 98.9913 482.9 98.7714 482.633 98.7714C482.366 98.7714 482.148 98.9913 482.148 99.26ZM504.942 108.543C505.271 109.08 505.978 109.52 506.511 109.52C507.045 109.52 507.211 109.08 506.882 108.543C506.552 108.005 505.846 107.566 505.312 107.566C504.779 107.566 504.612 108.005 504.942 108.543ZM517.147 113.787C517.37 113.985 519.297 114.441 521.431 114.8C524.211 115.27 524.899 115.173 523.856 114.457C522.547 113.559 516.174 112.923 517.147 113.787ZM528.706 115.871C528.706 116.14 528.924 116.36 529.191 116.36C529.457 116.36 529.676 116.14 529.676 115.871C529.676 115.603 529.457 115.383 529.191 115.383C528.924 115.383 528.706 115.603 528.706 115.871ZM533.313 116.03C533.98 116.301 535.071 116.301 535.738 116.03C536.405 115.759 535.859 115.537 534.525 115.537C533.192 115.537 532.646 115.759 533.313 116.03ZM514.156 118.803C514.156 119.072 514.374 119.291 514.641 119.291C514.908 119.291 515.126 119.072 515.126 118.803C515.126 118.534 514.908 118.314 514.641 118.314C514.374 118.314 514.156 118.534 514.156 118.803ZM528.706 121.734C528.706 122.003 528.924 122.223 529.191 122.223C529.457 122.223 529.676 122.003 529.676 121.734C529.676 121.466 529.457 121.246 529.191 121.246C528.924 121.246 528.706 121.466 528.706 121.734ZM117.446 125.643C117.446 125.912 117.228 126.131 116.961 126.131C116.694 126.131 116.476 125.912 116.476 125.643C116.476 125.374 116.694 125.154 116.961 125.154C117.228 125.154 117.446 125.374 117.446 125.643ZM546.488 127.76C546.844 128.118 547.426 128.118 547.782 127.76C548.137 127.402 547.846 127.109 547.135 127.109C546.424 127.109 546.133 127.402 546.488 127.76ZM555.622 129.71C556.289 129.981 557.38 129.981 558.047 129.71C558.714 129.439 558.168 129.217 556.834 129.217C555.5 129.217 554.955 129.439 555.622 129.71ZM352.174 136.88C355.624 140.356 354.544 146.279 349.456 151.774C347.182 154.231 346.837 154.327 345.298 152.924C343.577 151.354 341.531 154.094 342.837 156.222C343.104 156.657 341.713 158.034 339.746 159.28C324.673 168.828 331.913 186.084 347.61 178.023C348.958 177.33 350.665 177.038 351.731 177.095C352.79 177.152 353.217 177.553 352.029 178.249C336.528 187.329 324.402 178.023 327.959 166.776C329.03 163.389 331.523 159.825 335.775 156.535L340.05 153.227L339.748 146.764C339.283 136.794 346.439 131.102 352.174 136.88ZM481.983 138.76C493.647 141.031 489.608 145.186 475.737 145.186H465.174L464.591 156.474L475.066 156.204C492.67 155.751 491.598 160.808 473.821 162.084L464.204 162.774L463.893 166.59C463.23 174.759 463.514 174.989 474.288 174.989C484.608 174.989 487.655 176.232 485.058 179.386C483.55 181.215 465.156 181.469 461.331 179.713C457.376 177.899 456.72 173.627 457.602 155.446L458.384 139.323L463.634 139.082C466.522 138.95 469.104 138.62 469.374 138.35C470.112 137.605 477.246 137.838 481.983 138.76ZM345.648 140.023C343.975 142.128 343.362 145.279 344.188 147.527L344.971 149.663L347.193 147.282C348.668 145.7 349.306 143.99 349.096 142.187C348.74 139.137 347.148 138.138 345.648 140.023ZM380.148 141.521C381.581 143 384.618 146.407 386.897 149.094L391.039 153.98L393.524 151.049C403.342 139.467 406.509 137.355 408.726 140.903C409.513 142.162 408.304 144.182 402.768 150.86C394.456 160.884 394.487 158.421 402.545 168.622C409.092 176.911 409.885 179.103 406.765 180.309C404.497 181.186 401.198 178.564 396.68 172.297C394.454 169.209 392.265 166.271 391.816 165.767C391.334 165.229 387.819 167.97 383.263 172.436C369.792 185.642 365.265 181.12 378.393 167.571C385.505 160.231 386.217 159.168 385.042 157.642C384.318 156.703 380.939 152.747 377.531 148.85C372.354 142.93 371.535 141.525 372.543 140.3C374.376 138.075 377.254 138.537 380.148 141.521ZM448.927 141.032C450.202 142.056 450.754 174.192 449.551 177.351C447.102 183.781 442.115 176.849 443.006 168.255C443.333 165.111 443.287 158.744 442.903 154.106L442.205 145.674L426.376 145.685L426.327 158.138C426.258 175.945 424.432 179.544 415.887 178.711C412.165 178.347 411.226 173.843 414.736 173.187C415.803 172.987 417.157 172.431 417.746 171.952C419.147 170.808 420.189 152.377 419.193 146.333C418.092 139.648 441.911 135.402 448.927 141.032ZM521.768 139.699C525.979 142.387 522.505 144.203 512.206 144.697L502.032 145.186L501.449 153.216L507.634 153.716C532.814 155.753 528.432 179.849 502.878 179.868C494.867 179.875 488.986 149.847 495.081 140.056C495.969 138.63 519.6 138.314 521.768 139.699ZM572.676 147.303C573.032 147.661 573.614 147.661 573.97 147.303C574.325 146.945 574.034 146.651 573.323 146.651C572.612 146.651 572.321 146.945 572.676 147.303ZM360.904 150.071C360.904 150.34 360.686 150.56 360.419 150.56C360.152 150.56 359.934 150.34 359.934 150.071C359.934 149.803 360.152 149.583 360.419 149.583C360.686 149.583 360.904 149.803 360.904 150.071ZM361.841 154.469C364.341 154.469 364.967 156.93 362.937 158.781C360.979 160.567 358.852 157.494 359.076 153.201C359.163 151.548 359.292 151.445 359.632 152.759C359.877 153.7 360.871 154.469 361.841 154.469ZM108.453 153.104C108.131 153.429 107.294 153.464 106.595 153.182C105.821 152.87 106.051 152.638 107.181 152.591C108.203 152.549 108.775 152.78 108.453 153.104ZM559.513 154.163C558.586 154.407 556.84 154.416 555.633 154.182C554.427 153.949 555.185 153.748 557.319 153.738C559.453 153.727 560.44 153.918 559.513 154.163ZM361.396 157.389C361.056 157.942 361.445 158.106 362.308 157.773C363.988 157.123 364.296 156.423 362.901 156.423C362.399 156.423 361.722 156.858 361.396 157.389ZM502.759 159.99C501.967 160.32 501.547 162.669 501.547 166.764V173.034H506.665C518.826 173.034 520.306 161.515 508.337 160.029C505.936 159.73 503.427 159.713 502.759 159.99ZM359.934 163.751C359.934 164.02 359.716 164.24 359.449 164.24C359.182 164.24 358.964 164.02 358.964 163.751C358.964 163.483 359.182 163.263 359.449 163.263C359.716 163.263 359.934 163.483 359.934 163.751ZM351.465 168.872C350.98 172.081 349.264 172.386 349.264 169.263C349.264 167.793 351.209 164.833 351.752 165.478C351.858 165.603 351.729 167.13 351.465 168.872ZM358.964 166.683C358.964 166.952 358.746 167.171 358.479 167.171C358.212 167.171 357.994 166.952 357.994 166.683C357.994 166.414 358.212 166.194 358.479 166.194C358.746 166.194 358.964 166.414 358.964 166.683ZM357.509 169.126C357.839 169.663 357.89 170.103 357.623 170.103C357.357 170.103 356.869 169.663 356.539 169.126C356.209 168.588 356.158 168.149 356.425 168.149C356.691 168.149 357.179 168.588 357.509 169.126ZM110.656 170.591C110.656 170.86 110.874 171.08 111.141 171.08C111.408 171.08 111.626 170.86 111.626 170.591C111.626 170.323 111.408 170.103 111.141 170.103C110.874 170.103 110.656 170.323 110.656 170.591ZM359.383 178.282C362.582 184.176 362.126 184.804 357.574 180.778C353.184 176.895 351.882 174.522 352.707 171.906C353.536 169.274 355.528 171.177 359.383 178.282ZM575.586 188.343C575.942 188.701 576.524 188.701 576.88 188.343C577.235 187.985 576.944 187.691 576.233 187.691C575.522 187.691 575.231 187.985 575.586 188.343ZM555.541 197.137C555.185 197.495 554.603 197.495 554.247 197.137C553.892 196.779 554.183 196.486 554.894 196.486C555.605 196.486 555.896 196.779 555.541 197.137ZM492.817 199.906C492.817 200.174 492.599 200.394 492.332 200.394C492.066 200.394 491.847 200.174 491.847 199.906C491.847 199.637 492.066 199.417 492.332 199.417C492.599 199.417 492.817 199.637 492.817 199.906ZM576.052 200.085C576.751 200.367 577.588 200.332 577.91 200.007C578.232 199.683 577.66 199.452 576.638 199.494C575.508 199.541 575.278 199.773 576.052 200.085ZM555.432 203.412C555.732 203.902 556.68 204.303 557.538 204.303C559.376 204.303 558.394 203.038 556.316 202.732C555.53 202.615 555.131 202.921 555.432 203.412ZM479.238 203.814C479.238 204.083 479.02 204.303 478.753 204.303C478.486 204.303 478.268 204.083 478.268 203.814C478.268 203.546 478.486 203.326 478.753 203.326C479.02 203.326 479.238 203.546 479.238 203.814ZM547.135 203.814C547.135 204.083 546.916 204.303 546.65 204.303C546.383 204.303 546.165 204.083 546.165 203.814C546.165 203.546 546.383 203.326 546.65 203.326C546.916 203.326 547.135 203.546 547.135 203.814ZM428.316 209.548C429.916 209.716 426.642 209.917 421.041 209.995C415.439 210.072 411.358 209.813 411.971 209.418C412.998 208.756 421.378 208.823 428.316 209.548ZM396.792 209.677C396.792 209.946 396.574 210.166 396.307 210.166C396.04 210.166 395.822 209.946 395.822 209.677C395.822 209.408 396.04 209.189 396.307 209.189C396.574 209.189 396.792 209.408 396.792 209.677ZM400.409 209.779C400.087 210.103 399.25 210.138 398.551 209.856C397.777 209.544 398.006 209.313 399.136 209.266C400.159 209.224 400.731 209.454 400.409 209.779ZM403.259 209.84C402.903 210.198 402.321 210.198 401.965 209.84C401.61 209.482 401.901 209.189 402.612 209.189C403.323 209.189 403.614 209.482 403.259 209.84ZM408.169 209.779C407.847 210.103 407.01 210.138 406.31 209.856C405.536 209.544 405.766 209.313 406.896 209.266C407.918 209.224 408.491 209.454 408.169 209.779ZM434.357 209.779C434.035 210.103 433.198 210.138 432.499 209.856C431.725 209.544 431.955 209.313 433.085 209.266C434.107 209.224 434.679 209.454 434.357 209.779ZM437.53 209.677C437.53 209.946 437.312 210.166 437.045 210.166C436.778 210.166 436.56 209.946 436.56 209.677C436.56 209.408 436.778 209.189 437.045 209.189C437.312 209.189 437.53 209.408 437.53 209.677ZM480.208 211.746C480.208 211.951 478.79 212.113 477.056 212.105C474.912 212.095 474.326 211.82 475.223 211.247C476.427 210.479 480.208 210.857 480.208 211.746ZM552.307 210.817C552.663 211.175 553.245 211.175 553.601 210.817C553.956 210.459 553.665 210.166 552.954 210.166C552.243 210.166 551.952 210.459 552.307 210.817ZM461.779 211.631C461.779 211.9 461.561 212.12 461.294 212.12C461.027 212.12 460.809 211.9 460.809 211.631C460.809 211.363 461.027 211.143 461.294 211.143C461.561 211.143 461.779 211.363 461.779 211.631ZM470.246 211.733C469.924 212.057 469.086 212.093 468.387 211.81C467.613 211.499 467.843 211.267 468.973 211.22C469.995 211.178 470.568 211.409 470.246 211.733ZM322.106 212.609C322.106 212.877 321.888 213.097 321.621 213.097C321.354 213.097 321.136 212.877 321.136 212.609C321.136 212.34 321.354 212.12 321.621 212.12C321.888 212.12 322.106 212.34 322.106 212.609ZM325.016 212.609C325.016 212.877 324.797 213.097 324.531 213.097C324.264 213.097 324.046 212.877 324.046 212.609C324.046 212.34 324.264 212.12 324.531 212.12C324.797 212.12 325.016 212.34 325.016 212.609ZM306.587 214.556C306.587 215.261 305.483 215.527 303.677 215.26C302.076 215.023 300.767 214.513 300.767 214.126C300.767 213.739 302.076 213.423 303.677 213.423C305.277 213.423 306.587 213.933 306.587 214.556ZM312.667 213.738C312.01 214.006 310.701 214.023 309.757 213.774C308.814 213.526 309.351 213.307 310.951 213.288C312.552 213.268 313.324 213.47 312.667 213.738ZM318.468 213.744C317.802 214.016 316.711 214.016 316.044 213.744C315.377 213.473 315.922 213.252 317.256 213.252C318.59 213.252 319.136 213.473 318.468 213.744ZM508.337 213.586C508.337 213.854 508.118 214.074 507.852 214.074C507.585 214.074 507.367 213.854 507.367 213.586C507.367 213.317 507.585 213.097 507.852 213.097C508.118 213.097 508.337 213.317 508.337 213.586ZM514.156 213.471C514.156 214.339 510.232 214.792 509.735 213.982C509.436 213.496 510.309 213.097 511.674 213.097C513.039 213.097 514.156 213.266 514.156 213.471ZM134.582 215.703C134.226 216.061 133.935 215.768 133.935 215.051C133.935 214.335 134.226 214.042 134.582 214.4C134.937 214.758 134.937 215.345 134.582 215.703ZM294.947 214.458C294.947 214.669 294.292 215.095 293.492 215.405C292.692 215.714 292.037 215.541 292.037 215.021C292.037 214.5 292.692 214.074 293.492 214.074C294.292 214.074 294.947 214.247 294.947 214.458ZM298.504 214.726C298.148 215.084 297.566 215.084 297.21 214.726C296.855 214.367 297.146 214.074 297.857 214.074C298.568 214.074 298.859 214.367 298.504 214.726ZM290.987 215.401C289.961 216.291 283.308 216.781 283.308 215.967C283.308 215.464 285.126 215.051 287.349 215.051C289.572 215.051 291.209 215.209 290.987 215.401ZM521.269 215.703C521.625 216.061 522.207 216.061 522.563 215.703C522.918 215.345 522.627 215.051 521.916 215.051C521.205 215.051 520.914 215.345 521.269 215.703ZM533.816 215.729C534.76 215.977 536.069 215.96 536.726 215.692C537.383 215.425 536.611 215.222 535.01 215.242C533.41 215.262 532.872 215.48 533.816 215.729ZM539.194 215.719C539.893 216.001 540.73 215.966 541.052 215.642C541.374 215.317 540.802 215.087 539.779 215.129C538.649 215.176 538.42 215.407 539.194 215.719ZM542.285 215.54C542.285 215.809 542.503 216.029 542.77 216.029C543.037 216.029 543.255 215.809 543.255 215.54C543.255 215.271 543.037 215.051 542.77 215.051C542.503 215.051 542.285 215.271 542.285 215.54ZM243.217 220.589C242.861 220.947 242.279 220.947 241.923 220.589C241.568 220.23 241.859 219.937 242.57 219.937C243.281 219.937 243.572 220.23 243.217 220.589ZM164.004 225.311C164.004 225.58 163.785 225.8 163.519 225.8C163.252 225.8 163.034 225.58 163.034 225.311C163.034 225.043 163.252 224.823 163.519 224.823C163.785 224.823 164.004 225.043 164.004 225.311ZM173.703 227.266C173.703 227.534 173.485 227.754 173.218 227.754C172.951 227.754 172.733 227.534 172.733 227.266C172.733 226.997 172.951 226.777 173.218 226.777C173.485 226.777 173.703 226.997 173.703 227.266ZM190.651 227.711C190.966 228.225 191.865 228.398 192.648 228.095C194.653 227.32 194.417 226.777 192.075 226.777C190.977 226.777 190.336 227.197 190.651 227.711ZM226.08 227.266C226.08 227.534 226.299 227.754 226.565 227.754C226.832 227.754 227.05 227.534 227.05 227.266C227.05 226.997 226.832 226.777 226.565 226.777C226.299 226.777 226.08 226.997 226.08 227.266ZM185.342 229.22C185.342 229.489 185.561 229.709 185.827 229.709C186.094 229.709 186.312 229.489 186.312 229.22C186.312 228.951 186.094 228.731 185.827 228.731C185.561 228.731 185.342 228.951 185.342 229.22ZM211.531 229.22C211.531 229.489 211.749 229.709 212.016 229.709C212.283 229.709 212.501 229.489 212.501 229.22C212.501 228.951 212.283 228.731 212.016 228.731C211.749 228.731 211.531 228.951 211.531 229.22ZM167.883 233.129C167.883 233.397 167.665 233.617 167.398 233.617C167.132 233.617 166.913 233.397 166.913 233.129C166.913 232.86 167.132 232.64 167.398 232.64C167.665 232.64 167.883 232.86 167.883 233.129ZM178.553 248.763C178.553 249.032 178.771 249.251 179.038 249.251C179.305 249.251 179.523 249.032 179.523 248.763C179.523 248.494 179.305 248.274 179.038 248.274C178.771 248.274 178.553 248.494 178.553 248.763ZM163.034 250.717C163.034 250.986 163.252 251.206 163.519 251.206C163.785 251.206 164.004 250.986 164.004 250.717C164.004 250.448 163.785 250.229 163.519 250.229C163.252 250.229 163.034 250.448 163.034 250.717Z" fill="black"/>
<path d="M273.594 144.018C273.594 149.62 269.619 151.824 267.321 147.496C264.39 141.98 253.603 149.238 249.296 159.621C244.892 170.239 252.806 176.198 263.615 170.4C268.809 167.616 270.471 167.399 272.038 169.299C276.625 174.869 258.366 181.85 249.52 177.908C232.991 170.542 243.389 141.791 263.41 139.501C273.388 138.36 273.594 138.452 273.594 144.018Z" fill="#CA4F45"/>
<path fill-rule="evenodd" clip-rule="evenodd" d="M308.204 139.79C326.63 145.35 318.7 177.254 298.57 178.545C286.998 179.288 278.097 173.36 277.237 164.341C275.576 146.933 291.099 134.626 308.204 139.79ZM290.179 171.357C280.556 166.758 282.91 150.71 293.915 145.881C303.472 141.687 310.938 145.783 310.938 155.222C310.938 168.214 300.528 176.305 290.179 171.357Z" fill="#CA4F45"/>
<path d="M169.754 140.863C170.549 142.085 171.882 146.373 172.719 150.391C176.444 168.286 176.634 168.332 181.589 152.526C187.738 132.909 191.756 132.544 194.97 151.309C195.84 156.387 197.622 164.261 198.93 168.806C201.419 177.455 201.117 179.683 197.453 179.683C194.74 179.683 193.781 177.742 191.206 167.025C189.873 161.479 188.627 156.786 188.437 156.594C188.247 156.404 186.161 161.191 183.8 167.233C179.67 177.804 179.393 178.229 176.421 178.519L173.331 178.821L170.358 169.469C168.723 164.326 167.385 159.437 167.385 158.605C167.385 154.691 165.527 159.028 163.499 167.679C160.982 178.417 160.316 179.683 157.186 179.683C153.422 179.683 153.36 173.895 157.012 163.56C157.771 161.411 159.176 155.994 160.133 151.524C162.606 139.98 166.426 135.747 169.754 140.863Z" fill="#CA4F45"/>
<path fill-rule="evenodd" clip-rule="evenodd" d="M236.506 147.438C236.914 151.468 237.132 160.263 236.991 166.98L236.736 179.195H233.826C230.964 179.195 230.912 179.103 230.625 173.576C230.441 170.014 229.909 167.962 229.171 167.967C227.064 167.984 217.627 172.821 212.944 176.284C207.759 180.118 205.713 180.496 204.321 177.878C203.228 175.819 206.753 171.918 213.221 168.028C216.683 165.946 217.28 164.049 214.473 164.049C213.76 164.049 211.822 162.773 210.165 161.214C200.893 152.487 212.732 139.423 229.462 139.921L235.766 140.109L236.506 147.438ZM222.504 146.863C223.93 146.547 225.533 146.143 226.067 145.963C228.843 145.031 229.263 145.796 229.689 152.568C230.232 161.164 230.06 161.394 223.749 160.551C212.079 158.991 211.203 149.365 222.504 146.863Z" fill="#CA4F45"/>
<path fill-rule="evenodd" clip-rule="evenodd" d="M327.915 165.63C327.921 166.021 327.936 166.403 327.959 166.776C328.956 183.204 345.547 182.142 351.191 177.404C351.353 177.268 351.539 177.168 351.731 177.095C352.24 176.902 352.786 176.899 353.017 176.908C353.178 175.455 351.391 174.949 348.92 176.736C343.044 180.985 333.554 179.327 332.23 173.82C330.984 168.637 333.827 164.121 342.126 158.099L344.702 156.231L347.309 160.715C348.905 163.459 349.71 165.994 349.385 167.248C348.703 169.876 356.057 180.43 360.3 182.915C364.162 185.175 364.093 184.291 359.857 177.204C357.956 174.023 356.839 171.272 357.375 171.092C357.911 170.912 359.095 168.484 360.004 165.697C360.913 162.91 362.634 159.631 363.828 158.411C365.022 157.191 366.463 154.347 367.032 152.092C368.3 147.058 367.793 146.07 366.293 150.651C365.034 154.494 359.794 155.05 360.862 151.227C362.2 146.436 362.191 145.291 360.835 148.274C358.716 152.938 357.989 157.209 359.314 157.209C360.971 157.209 360.628 159.128 357.927 164.975L355.467 170.299L353.091 165.133C352.899 164.716 351.659 164.984 351.445 164.546L349.185 165.4L344.428 156.429C344.428 156.429 346.968 154.744 347.772 154.219C348.575 153.693 345.007 156.031 346.281 155.202C350.801 151.552 356.106 139.446 352.341 135.882C345.968 129.852 337.191 138.976 339.891 148.823C340.805 152.16 340.689 152.411 336.809 155.482C332.492 158.901 329.523 162.299 327.915 165.63ZM345.833 148.415C344.462 148.415 344.669 142.718 346.098 141.085C348.938 137.842 350.878 142.115 348.339 146.02C347.482 147.337 346.354 148.415 345.833 148.415Z" fill="white"/>
<path d="M345.35 155.819L344.702 156.173C344.702 156.173 349.183 164.907 349.238 165.133C349.293 165.359 350.032 165.4 351.445 164.546C351.445 164.546 349.385 156.961 346.281 155.202C345.007 156.031 345.71 155.62 345.35 155.819Z" fill="#CA4F45"/>
<path d="M352.029 178.249C353.217 177.553 352.79 177.152 351.731 177.095C351.539 177.168 351.353 177.268 351.191 177.404C345.547 182.142 328.956 183.204 327.959 166.776C324.402 178.023 336.528 187.329 352.029 178.249Z" fill="#CA4F45"/>
</g>
<defs>
<filter id="filter0_d_2_5" x="0" y="-11" width="678" height="371" filterUnits="userSpaceOnUse" color-interpolation-filters="sRGB">
<feFlood flood-opacity="0" result="BackgroundImageFix"/>
<feColorMatrix in="SourceAlpha" type="matrix" values="0 0 0 0 0 0 0 0 0 0 0 0 0 0 0 0 0 0 127 0" result="hardAlpha"/>
<feOffset/>
<feGaussianBlur stdDeviation="50"/>
<feComposite in2="hardAlpha" operator="out"/>
<feColorMatrix type="matrix" values="0 0 0 0 0.658333 0 0 0 0 0.161119 0 0 0 0 0.120694 0 0 0 0.6 0"/>
<feBlend mode="normal" in2="BackgroundImageFix" result="effect1_dropShadow_2_5"/>
<feBlend mode="normal" in="SourceGraphic" in2="effect1_dropShadow_2_5" result="shape"/>
</filter>
</defs>
</svg>
